<svg width="577" height="618" viewBox="0 0 577 618" fill="none" xmlns="http://www.w3.org/2000/svg">
<path fill-rule="evenodd" clip-rule="evenodd" d="M469.597 0.0198561C474.997 -0.183947 477.319 1.09671 483.719 7.81185C487.929 12.231 496.556 22.959 502.889 31.6517L514.401 47.4564L534.101 42.1107C547.647 38.4338 554.593 37.1661 577 39.1556V42.0296C574.057 41.7105 571.247 41.4161 568.595 41.1517C566.945 40.9868 569.069 42.2093 577 45.7122V49.0931C566.21 44.7241 558.416 41.846 557.962 42.1341C557.337 42.5319 557.138 52.1865 557.52 63.5911C557.901 74.998 558.546 96.1673 558.954 110.639C559.361 125.108 560.498 137.338 561.478 137.818C562.46 138.294 565.842 137.059 568.992 135.074C570.001 134.438 572.85 132.885 577 130.694V133.769C574.549 135.003 572.639 135.963 571.44 136.568L561.565 141.549L574.251 144.43C574.918 144.582 575.843 144.778 577 145.018V147.942L563.412 145.224L577 159.289V163.881C567.03 153.879 560.126 147.215 559.84 147.395C558.491 148.251 552.29 254.155 553.631 253.429C553.833 253.317 563.548 248.27 577 241.285V244.797C574.636 246.054 572.493 247.198 570.683 248.169L554.617 256.791L560.215 259.375C563.32 260.809 569.269 263.181 577 266.124V269.174L553.789 260.451L564.38 299.178L577 306.792V310.591C575.341 309.851 575.211 310.414 577 312.97V317.998L565.118 303.664L542.004 287.906C529.293 279.237 518.692 272.074 518.446 271.989C518.204 271.908 521.936 287.622 526.74 306.914C531.546 326.209 537.819 353.219 540.682 366.934C543.544 380.647 546.582 391.997 547.435 392.16C548.915 392.434 562.015 390.22 577 387.41V390.451C561.25 393.409 549.937 395.659 550.049 395.838C550.182 396.049 562.02 403.893 577 413.709V417.581C569.86 412.85 563.267 408.413 559.703 405.92C553.88 401.846 548.798 398.43 548.409 398.327C548.022 398.222 549.941 408.245 552.676 420.6C555.41 432.954 558.983 449.807 560.614 458.052C562.247 466.298 564.096 473.159 564.724 473.301C565.219 473.411 570.329 471.443 577 468.618V474.185C539.617 481.95 517.909 482.604 483.43 478.499C467.01 476.547 452.835 474.956 451.927 474.962C448.778 474.989 469.095 484.592 511.298 503.031L553.724 521.566L577 521.557V524.451C570.309 524.452 565.726 524.494 564.559 524.583C559.924 524.941 559.818 525.154 562.83 528.049C564.597 529.747 569.896 535.312 574.607 540.419L577 543.013V547.428C571.692 540.694 555.332 524.804 553.019 524.831C551.562 524.849 537.022 525.006 520.706 525.18C504.392 525.353 491.324 525.939 491.669 526.485C493.341 529.123 565.206 549.002 577 550.355V552.129C549.061 547.873 511.923 538.51 493.105 530.257C485.051 526.726 478.819 525.995 462.122 526.629C450.627 527.066 431.952 527.261 420.623 527.063C402.816 526.752 399.323 527.28 394.858 530.961C392.017 533.305 382.623 540.258 373.98 546.412C341.388 569.624 309.832 594.905 301.446 604.522C293.481 613.657 292.202 614.557 284.545 616.402C274.074 618.924 245.74 617.86 233.612 614.489C221.96 611.248 219.62 607.548 222.499 596.914L224.789 588.461L216.102 580.287C207.422 572.116 199.369 558.262 202.242 556.442C202.992 555.967 208.566 558.394 214.631 561.835C224.607 567.497 226.069 570.672 226.313 567C226.461 564.769 231.377 569.472 230.444 568C228.034 564.198 231.964 564.262 233.612 563.217C239.315 565.724 236.5 558.5 239.134 558C243.428 560.654 240.886 555.843 241.968 555.158C243.049 554.472 243.081 553.231 242.037 552.399C238.665 549.71 231.665 532.748 233.167 530.909C233.97 529.928 236.931 530.416 239.747 531.992C249.705 537.563 249.72 537.562 253.261 531.696C255.053 528.726 256.741 524.584 257.01 522.492C257.563 518.192 252.836 499.325 250.108 494.946C249.124 493.365 239.706 484.807 229.18 475.932C208.041 458.109 200.39 454.731 179.85 454.16L168.819 453.855L169.254 459.126C169.835 466.188 166.232 466.688 160.849 460.293C157.454 456.259 154.807 455.102 149.24 455.214C129.1 455.63 142.303 454.271 120.923 455.842C117.79 456.073 117.715 457.272 120.375 464.45C122.076 469.036 125.741 477.458 128.519 483.162C139.354 505.407 121.735 494.816 103.963 468.401C91.9832 450.598 91.2576 450.115 75.9432 449.697C71.6895 449.582 67.6811 449.427 67.037 449.353C66.3913 449.277 58.7372 438.741 50.0272 425.94C35.6698 404.838 33.5808 402.425 27.7157 400.159C22.0465 397.968 20.0581 395.787 11.6932 382.588C0.862196 365.498 -2.33697 352.398 3.05844 347.23C10.8719 339.744 14.8776 337.016 26.5741 331.215C33.5356 327.761 48.5795 319.64 60.0067 313.167C71.4339 306.694 93.5943 294.682 109.249 286.472C124.904 278.26 139.167 270.621 140.943 269.495C143.221 268.052 144.015 264.184 143.638 256.385L143.099 245.324L161.575 219.906C180.247 194.215 215.727 156.161 251.473 123.486C259.414 116.224 266.031 110.13 266.179 109.941C266.437 109.606 290.019 101.134 352.473 78.9378C369.047 73.047 387.435 67.1145 393.333 65.7552L404.058 63.2826L408.108 44.0677C414.501 13.745 413.49 15.821 423.526 12.4036C443.098 5.7385 463.513 0.250349 469.597 0.0198561ZM264.288 600.751C254.875 600.186 252.087 600.871 244.673 605.57L236.029 611.048L243.458 612.882C253.272 615.304 276.323 615.515 284.111 613.255C290.244 611.475 298.312 605.169 296.985 603.196C296.606 602.634 291.565 602.002 285.779 601.792C279.993 601.583 270.322 601.115 264.288 600.751ZM250.14 597.761C249.582 596.879 244.662 599.076 238.714 602.864C231.4 607.523 229.252 609.524 231.546 609.545C235.877 609.583 251.398 599.746 250.14 597.761ZM229.504 597.934C230.891 589.885 227.097 590.028 225.471 598.085C224.397 603.4 224.651 605.228 226.313 604.174C227.62 603.346 229.054 600.538 229.504 597.934ZM252.083 583.692C251.763 583.191 247.276 585.423 242.11 588.654C235.021 593.088 232.535 595.595 231.969 598.882C231.258 603.008 231.634 602.974 239.134 598.221C246.5 593.552 253.417 585.791 252.083 583.692ZM283.138 584.709C272.374 567.726 273.28 567.86 260.283 581.329C248.087 593.967 249.041 596.777 265.858 597.715C272.361 598.079 281.032 598.655 285.132 598.995L292.583 599.614L283.138 584.709ZM192.573 398.485C150.808 402.59 114.658 405.868 112.236 405.77C107.886 405.592 105.493 406.872 97.9969 413.382C94.1589 416.716 94.0859 419.459 97.8348 419.415C98.9197 419.403 107.636 416.882 117.203 413.81C126.771 410.737 135.913 408.45 137.517 408.726C139.124 409.003 150.993 408.154 163.896 406.839C210.76 402.061 255.017 398.849 259.561 399.898C264.13 400.951 304.093 426.201 319.253 437.61L326.977 443.424L316.918 482.077L322.537 470.129C330.16 453.922 331.437 450.31 331.315 445.321C331.215 441.277 331.322 441.268 333.237 445.189C334.739 448.266 333.633 452.948 328.942 463.351C320.494 482.082 305.393 512.163 289.309 542.294L276.121 567L297.697 599.116L301.227 596.118C305.297 592.659 321.761 573.368 330.761 561.509C336.629 553.778 337.073 551.39 340.479 509.446C342.442 485.268 344.567 461.794 345.202 457.282L346.355 449.075L331.92 439.156C323.98 433.701 306.465 420.638 292.998 410.129L268.513 391.022L192.573 398.485ZM269.864 559.595C270.128 558.418 268.402 559.125 266.028 561.168C263.161 563.635 260.108 564.605 256.932 564.057C252.601 563.312 252.304 563.476 253.776 565.798C255.427 568.403 249.361 573.894 246.525 572.36C245.763 571.946 245.834 572.294 246.683 573.13C248.822 575.239 243.41 580.648 239.645 580.164C237.415 579.877 236.882 580.267 237.711 581.575C238.341 582.569 237.915 583.821 236.761 584.358C232.496 586.344 230.894 588.3 232.78 589.216C233.848 589.734 237.293 588.526 240.438 586.533C248.065 581.695 269.26 562.291 269.864 559.595ZM216.387 565.855C212.13 563.223 207.993 561.487 207.19 561.993C205.129 563.3 216.583 577.383 223.536 582.09L229.297 585.992L225.798 580.194C223.874 577.004 222.711 573.548 223.213 572.516C223.75 571.408 220.954 568.679 216.387 565.855ZM433.937 479.943C433.73 479.616 432.751 479.997 431.76 480.79C430.771 481.584 421.495 488.927 411.149 497.106C346.69 548.065 341.858 552.265 328.646 568.828C321.555 577.718 316.138 585.078 316.606 585.186C317.077 585.291 327.256 577.783 339.226 568.5C351.198 559.215 371.503 544.303 384.351 535.361L407.712 519.099L421.013 499.819C428.325 489.218 434.14 480.276 433.937 479.943ZM230.444 572.778C226.518 569.104 225.037 571.858 228.229 576.896C229.85 579.452 231.815 581.138 232.597 580.644C234.492 579.443 233.434 575.576 230.444 572.778ZM258.935 578.295C259.124 577.455 257.978 577.668 256.387 578.77C254.629 579.988 254.494 580.588 256.044 580.299C257.445 580.039 258.747 579.136 258.935 578.295ZM239.626 570.887C237.006 566.753 233.199 565.843 233.24 569.362C233.272 572.198 238.682 576.787 240.577 575.586C241.372 575.082 240.945 572.968 239.626 570.887ZM315.868 473.368C315.856 472.293 315.497 471.635 315.071 471.905C314.645 472.175 314.305 473.166 314.316 474.106C314.401 481.708 276.334 556.84 265.943 569.576L261.054 575.568L268.134 569.714C273.441 565.326 278.239 557.88 287.294 539.97C298.958 516.899 315.914 477.378 315.868 473.368ZM249.608 563.217C248.09 561.452 245.725 560.29 244.349 560.635C242.65 561.062 242.735 562.293 244.609 564.473C246.128 566.238 248.493 567.401 249.868 567.055C251.567 566.628 251.483 565.397 249.608 563.217ZM238.785 540.326C242.357 548.612 249.289 557.214 254.993 560.439C258.411 562.37 267.219 558.076 267.179 554.496C267.163 553.37 259.985 547.902 251.226 542.343L235.297 532.236L238.785 540.326ZM273.659 549.191C275.449 542.731 273.278 539.975 267.357 541.184C264.644 541.739 262.121 542.385 261.751 542.619C260.437 543.452 262.958 545.962 265.082 545.939C266.268 545.926 268.386 547.724 269.788 549.937C272.275 553.862 272.37 553.843 273.659 549.191ZM348.979 450.415C348.481 450.748 342.806 515.705 341.774 532.909L340.775 549.572L346.887 544.289C350.249 541.385 371.136 524.645 393.305 507.09C415.471 489.537 433.735 474.607 433.893 473.91C434.049 473.217 415.069 467.606 391.718 461.444C368.365 455.279 349.133 450.318 348.979 450.415ZM286.551 528.407C286.056 527.626 280.685 531.15 278.881 533.441C276.993 535.836 276.438 539.728 277.69 541.792C278.094 542.457 280.311 539.81 282.618 535.91C284.924 532.014 286.693 528.638 286.551 528.407ZM292.398 444.463C295.202 429.744 294.222 429.02 285.515 439.381C273.257 453.968 268.622 467.854 267.958 491.989C267.506 508.374 266.4 512.876 259.599 526.047C252.347 540.094 253.759 544.079 264.036 538.572C270.421 535.151 270.659 534.68 268.727 529.363C267.559 526.148 267.684 522.692 269.019 521.259C270.299 519.886 270.812 516.99 270.157 514.829C268.969 510.913 268.987 510.906 274.395 512.861L279.828 514.824L278.708 509.341C277.877 505.279 278.487 503.574 281.064 502.75C285.277 501.405 288.553 488.63 289.227 470.908C289.483 464.175 290.912 452.275 292.398 444.463ZM276.779 527.303C273.562 523.892 269.603 525.655 271.996 529.431C273.202 531.334 275.043 532.024 276.479 531.114C277.923 530.198 278.046 528.644 276.779 527.303ZM294.607 498.232C290.29 497.187 288.785 497.521 288.808 499.522C288.827 501.13 290.407 502.325 292.723 502.48C295.398 502.658 296.274 503.422 295.538 504.937C294.949 506.146 291.976 506.658 288.931 506.075C281.855 504.718 281.257 505.191 283.342 510.475C284.593 513.645 285.727 514.393 287.537 513.246C289.35 512.097 289.547 513.46 288.268 518.299C287.306 521.944 286.763 525.313 287.062 525.787C287.746 526.866 298.914 506.467 299.79 502.54C300.275 500.365 298.98 499.289 294.607 498.232ZM283.392 521.133C282.715 517.762 275.08 515.205 275.116 518.36C275.147 521.077 280.833 526.183 282.587 525.072C283.366 524.577 283.729 522.805 283.392 521.133ZM431.46 523.575C429.345 522.825 427.35 522.378 427.029 522.581C425.754 523.39 427.38 524.142 431.245 524.532C434.923 524.9 434.943 524.811 431.46 523.575ZM414.835 522.627C409.7 522.533 406.942 522.929 408.708 523.506C412.106 524.615 425.298 524.571 424.589 523.452C424.358 523.091 419.968 522.72 414.835 522.627ZM459.483 494.538C418.452 516.122 414.804 518.253 417.88 518.851C425.08 520.25 514.189 522.456 533.165 521.704L543.759 521.285L537.918 518.509C534.705 516.984 518.309 509.616 501.483 502.138L470.889 488.538L459.483 494.538ZM278.637 414.129C260.163 402.321 256.428 401.612 227.887 404.529L208.785 406.481L207.292 412.287C205.622 418.782 204.111 418.965 197.286 413.494C190.637 408.165 188.905 409.363 189.025 419.21C189.081 423.936 188.411 428.283 187.536 428.869C185.999 429.899 171.201 418.364 168.41 413.961C167.659 412.776 164.284 411.69 160.91 411.552C157.537 411.414 153.089 411.72 151.025 412.233C147.331 413.151 147.342 413.173 151.757 413.589C154.223 413.82 156.803 413.653 157.493 413.216C159.754 411.784 161.252 416.206 164.188 432.967C167 449.019 167.211 449.505 171.496 449.953C210.113 453.998 208.948 453.5 235.875 477.435C254.611 494.089 256.468 496.806 259.892 512.567C261.336 519.2 263.717 506.963 264.957 486.565C266.311 464.245 272.215 449.464 285.49 435.156C290.302 429.969 294.356 425.436 294.498 425.081C294.64 424.724 287.503 419.796 278.637 414.129ZM454 480.639C447.541 477.225 442.669 475.834 441.12 476.96C438.217 479.069 415.457 512.947 416.741 513.243C418.29 513.591 463.791 488.802 464.094 487.446C464.254 486.721 459.712 483.66 454 480.639ZM291.826 488.387C292.622 493.149 293.66 495.047 295.725 495.51C297.788 495.972 298.376 495.328 297.927 493.091C297.589 491.413 295.833 488.208 294.026 485.967L290.739 481.895L291.826 488.387ZM302.807 478.895C299.61 477.767 296.417 477.211 295.709 477.66C295.001 478.108 296.39 482.115 298.797 486.565C301.2 491.01 303.205 494.624 303.256 494.599C303.301 494.568 304.528 491.483 305.979 487.744L308.617 480.947L302.807 478.895ZM116.503 463.628C115.504 460.332 114.632 459.927 112.056 461.559C110.296 462.674 107.37 462.818 105.556 461.878C102.833 460.466 102.816 461.064 105.458 465.322C110.195 472.951 125.674 489.879 126.45 488.28C126.82 487.52 125.012 482.585 122.433 477.313C119.854 472.04 117.186 465.882 116.503 463.628ZM296.377 443.072C294.646 451.609 292.774 461.581 292.214 465.229L291.196 471.862L296.362 472.83C299.204 473.362 303.571 474.649 306.067 475.689L310.604 477.58L313.731 469.498C319.17 455.437 321.021 445.709 318.875 442.462C317.731 440.733 312.908 436.67 308.159 433.433L299.524 427.545L296.377 443.072ZM544.321 397.081C544.121 396.765 540.43 399.526 522.221 413.616C512.201 421.367 493.034 435.848 479.628 445.795C441.852 473.823 441.663 471.104 481.68 475.358C512.053 478.587 559.235 478.172 560.018 474.669C560.204 473.805 544.853 397.928 544.321 397.081ZM133.658 452.245C139.765 448.281 119.064 461.736 133.658 452.245ZM534.207 400.044C534.325 399.511 511.865 406.169 484.295 414.841C456.722 423.512 433.276 430.8 432.189 431.035C431.084 431.275 432.996 439.748 436.536 450.288L442.855 469.113L447.649 465.994C455.491 460.89 533.943 401.116 534.207 400.044ZM425.915 433.112C424.94 433.123 412.749 435.48 398.819 438.351C384.89 441.219 373.222 443.742 372.886 443.953C371.2 445.022 374.821 446.755 388.292 451.324C396.409 454.077 411.095 459.363 420.925 463.071C430.757 466.778 438.881 469.446 438.982 468.999C439.545 466.484 427.388 433.095 425.915 433.112ZM376.587 450.709C365.075 446.579 357.587 444.96 355.65 446.188C353.426 447.598 358.964 449.762 376.849 454.472C409.898 463.173 409.862 462.65 376.587 450.709ZM108.82 451.308C103.287 445.072 97.9071 443.249 101.482 448.822C105.09 454.446 109.986 458.527 111.768 457.398C112.713 456.798 111.534 454.367 108.82 451.308ZM155.474 416.475C154.105 416.168 150.28 417.073 146.976 418.485C139.347 421.745 139.652 423.491 150.897 440.923C164.49 461.991 165.9 461.579 161.663 437.792C159.239 424.184 157.107 416.842 155.474 416.475ZM101.393 452.156C100.012 449.976 98.1833 448.633 97.3309 449.172C96.4786 449.712 96.6385 451.507 97.6873 453.162C98.7362 454.817 100.564 456.159 101.75 456.146C102.973 456.133 102.818 454.404 101.393 452.156ZM129.482 446.383C126.95 446.057 126.351 446.662 126.834 449.058C127.733 453.534 127.958 453.653 131.377 451.487C133.081 450.406 134.088 448.911 133.614 448.162C133.141 447.416 131.281 446.614 129.482 446.383ZM108.367 437.833C107.349 438.479 110.3 446.857 112.434 449.374C117.411 455.247 118.072 452.758 113.512 445.323C110.9 441.065 108.586 437.695 108.367 437.833ZM140.369 433.299C136.978 430.399 134.503 434.263 135.025 441.636C135.54 448.885 135.614 448.999 141.353 451.201C144.548 452.427 148.771 452.716 150.74 451.844C154.093 450.36 153.937 449.774 148.255 442.559C144.919 438.324 141.372 434.158 140.369 433.299ZM140.962 417.177C148.393 412.467 142.11 412.736 121.143 418.022C109.855 420.869 100.464 423.41 100.276 423.672C100.086 423.934 96.7225 427.111 92.8006 430.732C85.2775 437.676 84.6492 442.055 90.4686 446.944C92.891 448.977 93.6658 448.78 95.117 445.758C96.4559 442.97 97.6872 442.237 100.439 442.591C103.355 442.966 104.475 442.052 106.463 437.666C108.838 432.432 109.043 432.328 113.777 433.923L118.648 435.567L118.749 430.835C118.871 425.089 122.202 424.72 129.179 429.686L134.293 433.326L135.541 426.575C136.305 422.431 138.399 418.801 140.962 417.177ZM116.012 437.394C113.538 436.223 113.222 436.504 113.793 439.348C114.669 443.701 121.161 449.823 122.336 447.404C122.839 446.368 122.273 443.999 121.077 442.14C119.88 440.282 117.6 438.146 116.012 437.394ZM76.6551 441.533C71.4388 439.943 70.4267 440.177 70.0575 443.045C69.7066 445.785 70.9067 446.527 76.3084 446.915C83.6928 447.446 85.1267 447.052 83.745 444.871C83.2336 444.066 80.0448 442.564 76.6551 441.533ZM393.363 344.073C392.923 343.263 382.449 344.814 326.913 353.907C311.761 356.387 292.388 359.359 283.861 360.515C275.335 361.669 268.683 363.118 269.074 363.733C271.495 367.518 325.487 422.617 343.954 440.148C347.41 443.428 350.421 445.003 351.211 443.943C351.953 442.945 357.385 430.406 363.279 416.08C369.176 401.755 378.456 379.879 383.904 367.467C389.352 355.055 393.608 344.528 393.363 344.073ZM125.422 430.461C121.789 427.759 120.286 429.51 121.938 434.513C123.663 439.736 131.25 445.869 132.586 443.12C133.629 440.973 129.323 433.362 125.422 430.461ZM50.9647 422.768C58.2558 433.45 64.9287 442.349 65.7938 442.545C69.5305 443.383 68.0995 436.723 62.1385 425.532C56.3293 414.624 54.8717 413.007 46.7127 408.412L37.702 403.341L50.9647 422.768ZM396.899 347.047C396.303 346.915 363.78 421.47 358.669 434.688L356.348 440.69L362.814 441.007C370.673 441.392 424.727 430.75 425.765 428.613C426.173 427.775 425.84 426.04 425.026 424.755C424.212 423.47 417.695 405.492 410.542 384.805C403.392 364.126 397.254 347.141 396.899 347.047ZM205.705 349.675C182.523 351.601 163.216 353.411 162.799 353.7C162.383 353.987 157.664 364.588 152.314 377.257L142.582 400.292L205.399 394.25C239.947 390.926 269.334 388.822 270.698 389.574C272.066 390.326 287.712 402.025 305.468 415.574C323.22 429.122 337.839 439.792 337.957 439.291C338.071 438.787 331.506 431.939 323.369 424.076C315.233 416.211 294.914 395.466 278.217 377.975L247.859 346.173L205.705 349.675ZM93.7391 421.863C91.2504 420.013 84.1091 424.324 77.6971 431.548C73.9467 435.771 73.862 436.505 77.0389 437.217C81.9921 438.326 97.1428 424.397 93.7391 421.863ZM75.7743 389.53C71.8028 382.19 68.029 376.552 67.3866 376.998C66.7461 377.448 64.3005 384.725 61.952 393.173L57.6834 408.535L63.869 420.664C67.2697 427.332 70.3522 432.872 70.7235 432.979C71.0901 433.081 75.4457 429.37 80.4002 424.734L89.4081 416.301L86.202 409.586C84.4374 405.894 79.7457 396.869 75.7743 389.53ZM517.095 386.302C457.311 363.925 399.978 344.384 400.43 346.542C401.294 350.613 429.411 428.317 430.053 428.407C430.369 428.432 449.367 422.552 472.27 415.337C495.173 408.123 519.501 400.6 526.333 398.62C534.35 396.298 537.956 394.616 536.505 393.874C535.267 393.242 526.532 389.836 517.095 386.302ZM176.825 410.463C172.937 409.205 170.581 410.561 172.258 413.09C172.957 414.142 176.392 416.865 179.894 419.143L186.264 423.284L185.942 416.94C185.766 413.451 184.957 411.016 184.143 411.531C183.331 412.045 183.108 413.164 183.648 414.016C184.188 414.868 183.859 416.055 182.915 416.653C181.968 417.253 180.917 416.338 180.569 414.606C180.224 412.883 178.539 411.019 176.825 410.463ZM74.7498 381.183C74.1347 381.045 75.7985 384.365 78.4461 388.56C81.0964 392.755 85.1428 400.128 87.4403 404.943L91.618 413.698L98.8084 409.141C103.963 405.874 105.604 403.967 104.611 402.399C103.848 401.195 97.0692 395.985 89.5467 390.823C82.0219 385.659 75.3635 381.322 74.7498 381.183ZM202.865 408.354C200.603 407.255 197.659 408.73 198.769 410.407C200.573 413.125 204.858 414.027 204.832 411.683C204.816 410.37 203.932 408.872 202.865 408.354ZM25.4481 372.011C43.021 396.745 52.1745 408.285 53.5389 407.422C54.1727 407.021 53.2887 398.181 51.5741 387.778C48.1584 367.065 49.4597 369.033 34.0389 361.298C32.2881 360.42 26.7655 358.427 21.7674 356.87L12.6795 354.04L25.4481 372.011ZM116.806 358.227C93.6623 359.981 74.1492 361.814 73.4373 362.297C70.4937 364.315 68.856 369.954 70.5243 372.332C71.5102 373.74 81.3844 381.221 92.4647 388.958L112.612 403.029L138.431 401.573L158.889 355.035L116.806 358.227ZM18.6493 368.175C11.725 358.531 5.47475 351.008 4.75864 351.458C4.04428 351.911 3.7106 355.148 4.0184 358.65C4.53781 364.576 5.47199 365.928 17.5301 378.22C24.6547 385.483 33.1919 393.42 36.5008 395.858L42.5194 400.288L36.8797 393.002C33.7792 388.994 25.5732 377.822 18.6493 368.175ZM28.1434 392.567C27.0395 391.774 27.2394 392.868 28.5897 394.998C29.9399 397.129 30.8447 397.778 30.5985 396.441C30.3546 395.103 29.2497 393.36 28.1434 392.567ZM67.9393 360.813C71.8358 341.837 70.4103 339.423 57.5047 343.162C52.0516 344.742 46.872 346.489 45.994 347.045C43.8478 348.405 45.8057 355.286 50.1385 361.595C52.0856 364.431 53.2446 368.094 52.7176 369.734C51.7613 372.698 54.7425 392.253 56.5956 395.177C58.0087 397.407 64.4025 378.036 67.9393 360.813ZM514.656 271.448C514.09 270.562 491.808 283.88 457.816 305.422C427.066 324.91 402.482 341.25 403.181 341.734C403.884 342.216 435.286 353.676 472.962 367.201C513.02 381.582 541.672 390.855 541.968 389.536C542.245 388.294 539.831 376.303 536.599 362.888C533.37 349.471 527.319 323.736 523.154 305.701C518.989 287.665 515.166 272.252 514.656 271.448ZM35.5301 347.737C26.7281 347.103 11.927 348.682 12.8592 350.156C13.2933 350.841 19.885 352.759 27.5057 354.417C40.0647 357.15 46.6959 360.005 40.6473 360.073C39.1185 360.09 39.7844 360.974 42.5184 362.56C48.6085 366.093 49.0285 366.027 46.1278 361.988C44.7009 360.003 43.1178 356.083 42.6112 353.279C41.7974 348.79 40.9481 348.126 35.5301 347.737ZM294.102 289.18C292.901 289.298 251.283 342.012 250.826 343.993C250.781 344.187 253.998 347.861 257.974 352.159L265.205 359.973L289.283 356.532C302.527 354.639 321.746 351.666 331.992 349.927C342.238 348.188 359 345.518 369.24 343.998C379.478 342.476 387.887 340.931 387.927 340.564C387.965 340.196 374.927 333.029 358.953 324.637C342.98 316.244 322.213 304.801 312.806 299.207C303.401 293.613 294.984 289.101 294.102 289.18ZM145.235 321.268C144.073 321.092 129.598 327.364 113.068 335.205C96.5374 343.049 80.9311 350.279 78.3895 351.273C74.5919 352.759 71.7663 357.79 74.62 357.989C77.4449 358.186 104.923 356.179 129.721 353.962C154.423 351.756 158.751 350.878 157.939 348.24C154.774 337.957 147.045 321.546 145.235 321.268ZM223.605 292.341C223.081 292.279 207.502 297.611 188.981 304.194C170.457 310.777 153.962 316.595 152.326 317.119C149.284 318.097 151.501 326.404 159.486 343.932L162.697 350.98L203.827 346.819C231.598 344.01 244.766 341.885 244.365 340.28C243.178 335.534 224.525 292.456 223.605 292.341ZM132.016 292.835C131.096 292.387 123.216 295.854 114.505 300.536C105.794 305.22 93.0062 311.688 86.0907 314.913C79.1742 318.137 71.4119 321.588 68.8426 322.582C64.4015 324.3 64.3556 324.792 67.8944 332.484C76.2306 350.604 72.5135 350.147 102.056 336.678C116.421 330.129 132.035 322.966 136.751 320.759L145.327 316.746L139.509 305.198C136.31 298.846 132.939 293.283 132.016 292.835ZM27.9793 341.466C20.9 338.294 18.7877 338.224 14.3807 341.017C7.63689 345.291 9.1968 347.629 17.4159 345.563C20.9574 344.674 26.6708 344.233 30.1082 344.585L36.3602 345.221L27.9793 341.466ZM63.5467 330.747C60.2402 325.53 60.1525 325.527 44.6434 329.696C27.545 334.292 25.1788 335.322 26.5887 337.547C29.0615 341.449 43.9638 343.51 52.9491 341.193C66.5643 337.679 67.4111 336.845 63.5467 330.747ZM289.286 285.985C287.928 283.804 253.788 284.672 241.687 287.194C227.149 290.224 226.886 290.321 228.046 292.151C228.502 292.871 233.062 303.908 238.181 316.677C243.298 329.446 247.786 340.382 248.152 340.977C248.518 341.575 252.313 337.165 256.584 331.183C260.855 325.201 270.097 312.801 277.121 303.63C284.144 294.46 289.618 286.52 289.286 285.985ZM375.16 214.049C374.666 211.619 372.414 210.996 366.21 211.576C361.649 212.002 357.421 212.784 356.814 213.314C353.147 216.507 295.58 285.615 296.014 286.303C297.887 289.258 390.285 338.259 393.906 338.219C395.116 338.193 379.887 237.302 375.16 214.049ZM378.674 212.229C378.377 212.433 396.037 324.116 398.088 335.015C398.716 338.346 401.395 336.835 454.535 303.158C510.255 267.845 510.321 267.797 506.622 265.706C504.584 264.554 488.695 257.762 471.314 250.616C453.933 243.467 426.058 231.854 409.372 224.81C392.684 217.765 378.87 212.104 378.674 212.229ZM125.203 286.361C120.694 284.842 117.94 285.809 100.613 294.99C68.654 311.925 44.0813 325.853 45.4852 326.239C50.1375 327.517 124.782 294.811 128.992 289.65C129.746 288.725 128.175 287.363 125.203 286.361ZM178.27 270.151C177.861 270.041 170.373 273.094 161.627 276.936C152.881 280.776 143.512 285.304 140.807 286.996C136.31 289.812 136.129 290.617 138.703 296.436C140.25 299.936 143.06 305.645 144.948 309.124L148.381 315.452L182.685 303.214C201.552 296.484 217.102 290.467 217.247 289.84C217.44 288.984 182.291 271.228 178.27 270.151ZM549.182 260.29C545.74 259.609 518.564 267.334 519.456 268.741C519.975 269.559 524.903 272.966 530.408 276.313C535.913 279.657 544.576 285.415 549.66 289.105C554.743 292.794 559.052 295.148 559.235 294.333C559.883 291.445 550.775 260.607 549.182 260.29ZM217.654 269.993C216.322 269.001 209.391 268.685 202.255 269.289C195.117 269.895 188.56 270.493 187.683 270.622C186.807 270.75 194.155 274.634 204.014 279.254C213.871 283.873 222.35 287.395 222.855 287.078C224.483 286.062 220.159 271.854 217.654 269.993ZM265.456 251.84C261.416 245.73 258.904 245.556 250.764 250.825C244.451 254.913 241.187 255.93 236.827 255.17C231.235 254.199 231.052 254.301 226.689 260.878C222.97 266.487 222.612 269.055 224.489 276.647C225.722 281.636 227.29 286.02 227.975 286.392C228.658 286.763 233.455 286.01 238.633 284.72L248.045 282.375L257.106 267.646C262.088 259.546 265.847 252.435 265.456 251.84ZM165.851 270.028C166.011 269.314 165.316 269.254 164.306 269.894C163.294 270.535 158.829 271.073 154.383 271.089C149.197 271.107 142.725 272.958 136.327 276.252C126.653 281.234 126.439 281.481 129.242 284.467C131.889 287.287 133.521 286.871 148.847 279.437C158.04 274.977 165.692 270.743 165.851 270.028ZM351.282 213.807C351.515 212.766 317.3 218.51 307.938 221.083C303.848 222.207 295.885 223.995 290.243 225.058C284.601 226.121 279.406 227.356 278.701 227.803C277.994 228.252 275.632 233.904 273.449 240.363L269.481 252.108L280.786 267.666C287.002 276.224 292.405 283.298 292.792 283.383C293.537 283.52 350.968 215.201 351.282 213.807ZM276.326 267.144C271.725 261.196 267.524 256.665 266.99 257.075C264.524 258.968 252.949 280.007 253.944 280.785C256.267 282.606 285.583 281.789 285.148 279.917C284.896 278.841 280.926 273.093 276.326 267.144ZM182.093 223.067C181.744 222.517 178.396 224.17 174.655 226.745C169.569 230.245 165.39 235.921 158.105 249.219C152.748 259.001 148.261 267.454 148.138 268.005C148.013 268.553 155.102 268.409 163.889 267.686C178.634 266.471 179.892 266.067 180.201 262.446C181.49 247.399 182.617 223.905 182.093 223.067ZM185.439 226.171C184.735 226.931 182.962 264.087 183.545 265.891C183.97 267.207 188.987 267.479 195.331 266.53C204.696 265.129 206.81 264.211 209.235 260.498C211.509 257.016 211.421 255.407 208.812 252.658C207.007 250.754 201.049 243.975 195.571 237.59C190.094 231.206 185.535 226.068 185.439 226.171ZM249.486 223.695C237.894 224.007 218.585 241.993 213.524 257.196C211.445 263.439 211.581 263.974 215.473 264.848C221.858 266.279 226.408 260.064 229.297 245.962C231.431 235.549 232.72 233.052 237.546 229.993C242.014 227.162 245.2 226.805 252.124 228.357C262.658 230.718 268.544 228.682 260.312 225.522C257.477 224.434 252.605 223.612 249.486 223.695ZM477.137 179.141C475.03 174.052 474.844 174.033 464.8 177.901C459.19 180.061 439.532 187.35 421.111 194.098C402.692 200.847 386.168 206.778 384.394 207.277C382.621 207.775 381.439 208.611 381.769 209.131C382.31 209.982 401.414 218.137 487.059 254.073C501.113 259.968 512.411 264.478 512.167 264.092C511.92 263.701 504.421 245.593 495.499 223.849C486.577 202.102 478.313 181.984 477.137 179.141ZM484.423 187.564C490.316 202.649 512.302 257.063 513.992 260.748C515.617 264.295 517.308 264.267 532.114 260.439C541.094 258.116 548.361 256.09 548.265 255.935C548.166 255.78 536.925 242.727 523.285 226.928C509.643 211.129 494.708 194.242 490.092 189.402L481.701 180.601L484.423 187.564ZM183.32 199.743C183.22 195.938 182.774 196.449 163.614 222.368C148.538 242.763 146.319 246.699 146.432 252.848C146.504 256.731 147.008 260.006 147.55 260.128C148.091 260.25 152.543 252.924 157.44 243.848C164.815 230.176 167.671 226.502 174.088 222.431C180.977 218.061 181.92 216.683 182.612 209.965C183.041 205.81 183.36 201.211 183.32 199.743ZM555.601 144.709C555.161 144.639 539.344 150.268 520.454 157.218C501.564 164.168 484.484 170.422 482.498 171.117C478.958 172.354 479.361 172.912 502.765 199.173C515.896 213.909 531.755 231.944 538.006 239.25L549.368 252.535L551.314 219.956C552.384 202.038 553.968 177.807 554.832 166.109C555.697 154.413 556.043 144.784 555.601 144.709ZM253.559 232.143C247.001 227.861 233.428 233.179 232.501 240.393C232.3 241.947 232.847 245.371 233.716 248C235.778 254.247 242.308 253.99 250.221 247.349C257.809 240.981 258.974 235.679 253.559 232.143ZM230.962 205.983C230.949 204.838 229.117 204.559 226.889 205.363C224.663 206.168 216.011 209.158 207.665 212.01C199.318 214.861 191.026 217.585 189.239 218.064C186.622 218.767 186.586 219.875 189.059 223.779C193.751 231.181 209.367 248.693 211.825 249.309C213.829 249.808 231.018 210.89 230.962 205.983ZM274.162 227.964C273.014 225.93 261.486 234.202 261.198 237.267C260.745 242.093 262.174 246.124 264.789 247.395C266.647 248.298 268.216 246.168 271.054 238.883C273.135 233.537 274.535 228.625 274.162 227.964ZM235.345 207.288C234.493 207.119 231.612 212.952 228.941 220.252L224.086 233.528L246.607 218.822L241.751 213.211C239.081 210.125 236.197 207.461 235.345 207.288ZM257.38 207.738C234.474 203.076 235.309 202.262 248.549 216.333C254.796 222.973 273.282 225.164 291.644 221.44C300.509 219.642 307.856 217.755 307.969 217.247C308.082 216.74 301.437 215.348 293.206 214.154C284.973 212.959 268.85 210.072 257.38 207.738ZM253.66 127.41C254.369 124.246 244.073 133.722 216.912 161.235L187.244 191.284L186.057 202.636C185.406 208.881 185.301 214.085 185.825 214.202C187.325 214.53 252.955 130.56 253.66 127.41ZM349.223 138.248C348.794 136.118 342.44 139.702 313.475 158.408C294.101 170.919 271.274 186.12 262.75 192.184L247.251 203.209L267.613 206.712C306.297 213.366 320.28 214.59 335.092 212.62C343.269 211.534 351.188 210.163 352.691 209.574C354.648 208.806 354.618 198.911 352.583 174.671C351.022 156.064 349.51 139.676 349.223 138.248ZM262.501 123.751C261.642 122.395 257.792 126.781 248.629 139.56C243.239 147.077 228.523 166.269 215.929 182.209C203.334 198.149 192.77 212.004 192.456 212.995C192.141 213.988 200.85 211.537 211.809 207.549L231.738 200.302L237.566 185.508C240.772 177.371 247.774 160.273 253.127 147.515C258.48 134.759 262.696 124.067 262.501 123.751ZM359.706 138.551C356.913 137.283 354.12 136.568 353.502 136.959C352.465 137.616 358.069 206.007 359.32 207.981C361.224 210.984 381.828 205.223 421.39 190.632C446.301 181.444 467.176 173.321 467.779 172.58C468.379 171.841 456.598 167.802 441.597 163.606C405.771 153.586 366.072 141.438 359.706 138.551ZM260.021 138.689C254.481 152.566 246.461 172.077 242.197 182.049C234.994 198.892 234.748 200.206 238.723 200.56C242.245 200.873 248.39 197.295 273.4 180.363C290.119 169.044 313.108 153.88 324.487 146.666L345.176 133.548L328.267 128.641C318.968 125.942 302.075 121.423 290.727 118.597L270.096 113.458L260.021 138.689ZM521.722 134.062C515.3 131.737 514.563 132.03 506.392 140.17C503.464 143.088 496.573 149.953 491.081 155.423C476.941 169.508 476.933 170.387 490.997 164.684C497.879 161.893 513.619 156.039 525.976 151.671C538.334 147.306 548.95 143.413 549.568 143.021C550.188 142.628 545.526 140.94 539.207 139.27C532.889 137.598 525.021 135.255 521.722 134.062ZM417.814 127.115C404.37 116.25 400.059 113.667 397.076 114.68C387.192 118.042 354.987 132.6 355.533 133.461C357.253 136.163 466.43 168.65 466.89 166.597C466.988 166.159 459.806 160.181 450.928 153.315C442.051 146.447 427.149 134.658 417.814 127.115ZM439.916 110.002C407.292 113.143 404.825 113.606 408.019 115.984C412.412 119.254 468.364 163.208 470.268 164.884C473.757 167.955 474.311 160.319 472.606 132.669L471.023 107.005L439.916 110.002ZM519.189 89.6839C518.699 88.8959 514.13 89.1043 509.039 90.1458C503.948 91.1874 499.052 92.503 498.159 93.0687C497.265 93.6333 495.615 98.3451 494.488 103.537C493.362 108.732 489.14 123.868 485.108 137.174C481.075 150.481 478.018 161.855 478.312 162.451C478.605 163.048 481.915 160.283 485.669 156.308C489.422 152.333 497.866 144 504.435 137.788L516.382 126.496L518.232 108.806C519.25 99.0786 519.682 90.4734 519.189 89.6839ZM474.729 19.9525C474.459 19.5263 473.61 19.5738 472.843 20.0599C472.076 20.549 473.483 33.9475 475.969 49.8392C478.915 68.6664 479.815 81.1495 478.554 85.6673C477.489 89.4807 475.992 95.4403 475.227 98.9115C473.632 106.145 475.936 152.758 477.83 151.561C478.518 151.125 478.982 150.098 478.861 149.278C478.741 148.454 482.271 135.436 486.705 120.346C493.576 96.9586 494.413 91.774 492.366 85.265C491.045 81.063 486.648 64.823 482.593 49.1771C478.54 33.5319 475 20.3804 474.729 19.9525ZM523.332 94.932C522.952 94.8188 522.241 99.1783 521.754 104.619C521.267 110.061 520.19 118.14 519.364 122.574L517.861 130.635L554.655 138.71L539.339 116.924C530.915 104.945 523.714 95.0507 523.332 94.932ZM555.45 99.9652C554.063 45.0424 553.714 40.6196 550.824 41.2347C549.428 41.5307 540.922 43.5792 531.92 45.7874L515.552 49.8031L517.675 59.6917C518.842 65.1313 520.681 72.9283 521.765 77.0199C522.846 81.112 523.621 85.553 523.485 86.891C523.347 88.2294 530.274 98.9901 538.875 110.804C547.474 122.616 554.921 132.893 555.425 133.646C555.924 134.396 555.936 119.239 555.45 99.9652ZM394.219 92.5452C399.058 87.8447 395.178 85.1248 386.402 87.0658C381.95 88.0498 359.336 92.8524 336.15 97.7357C312.965 102.619 290.985 107.261 287.306 108.055C274.603 110.788 276.176 112.189 297.818 117.407C309.767 120.287 326.132 124.661 334.184 127.127L348.825 131.613L356.75 125.181C365.229 118.298 389.219 97.4014 394.219 92.5452ZM398.341 102.044C397.93 94.2881 397.682 93.7784 395.21 95.6038C389.297 99.9659 365.718 121.696 365.417 123.062C365.24 123.864 371.385 121.731 379.073 118.321C386.761 114.912 394.342 111.75 395.919 111.294C397.808 110.748 398.633 107.595 398.341 102.044ZM458.336 81.9232C454.861 78.7262 456.252 77.9688 426.441 99.3001L411.672 109.868L439.83 106.716C455.317 104.982 468.853 103.002 469.911 102.313C471.959 100.98 464.214 87.3355 458.336 81.9232ZM432.6 44.8167C426.289 36.0885 420.649 29.2486 420.065 29.6156C418.908 30.3491 414.655 51.4781 408.637 86.3968L404.775 108.809L424.83 96.099C435.861 89.1078 446.789 81.5721 449.115 79.3509C453.134 75.5139 453.114 74.9509 448.71 68.0013C446.16 63.9786 438.911 53.5447 432.6 44.8167ZM333.653 88.6556C314.749 95.5801 298.04 101.6 296.52 102.033C294.067 102.73 294.121 102.815 297.004 102.795C298.79 102.783 311.783 100.153 325.881 96.9544C339.98 93.7552 359.963 89.4277 370.286 87.3402C380.609 85.2526 388.772 83.0975 388.424 82.554C388.074 82.0078 383.342 80.3263 377.907 78.8128L368.026 76.0638L333.653 88.6556ZM415.967 23.5257C415.589 23.7653 413.029 34.1074 410.279 46.5101C407.528 58.9112 403.867 72.7144 402.144 77.1859C400.42 81.6557 399.586 87.8578 400.29 90.9671C400.995 94.0779 401.717 95.5758 401.895 94.2943C402.075 93.0133 405.468 76.4694 409.436 57.5286C413.405 38.5911 416.344 23.2901 415.967 23.5257ZM468.968 29.14C468.853 29.2712 466.144 39.6419 462.95 52.1829L457.139 74.9867L464.428 84.2445C468.433 89.335 472.233 93.6187 472.869 93.762C476.584 94.5936 476.745 76.0207 473.214 54.0326C470.995 40.2229 469.086 29.0273 468.968 29.14ZM475.854 5.80111C474.479 5.4926 475.547 14.3888 477.198 16.9935C477.593 17.6164 482.043 33.9489 487.086 53.2913C492.13 72.6323 497.119 88.599 498.171 88.7757C499.655 89.0233 517.491 85.1571 518.856 84.2933C519.014 84.1931 513.969 74.9276 507.643 63.7064C501.318 52.4852 491.915 34.9403 486.747 24.7191C481.58 14.4993 476.677 5.98556 475.854 5.80111ZM402.834 67.5833C402.664 67.3207 398.009 68.0688 392.485 69.2464C372.124 73.5904 372.369 73.2643 385.695 78.2699L397.694 82.7757L400.417 75.4183C401.913 71.3733 403.001 67.8468 402.834 67.5833ZM490.47 25.179C493.125 30.664 500.252 43.7396 506.308 54.2357L517.32 73.3206L514.894 62.9124C513.275 55.9609 509.852 48.391 504.593 40.1195C500.261 33.3082 494.224 24.9164 491.18 21.4701L485.643 15.2054L490.47 25.179ZM445.773 21.3206C433.237 22.4785 422.604 23.6628 422.145 23.9534C421.22 24.5397 439.801 50.9384 449.295 62.5257L455.363 69.9329L468.566 19.2171L445.773 21.3206ZM470.368 2.78841C469.718 1.7646 459.935 4.20506 439.861 10.4007C429.104 13.719 419.615 16.8694 418.776 17.4007C414.36 20.1994 421.568 20.2823 446.181 17.7132L473.423 14.8704L472.081 9.12044C471.341 5.95798 470.571 3.10918 470.368 2.78841Z" fill="white"/>
</svg>
