<svg width="170" height="170" viewBox="0 0 170 170" fill="none" xmlns="http://www.w3.org/2000/svg">
<path fill-rule="evenodd" clip-rule="evenodd" d="M105.651 167.382C151.177 155.867 178.837 109.649 167.433 64.1505C156.028 18.6521 109.877 -8.89721 64.3509 2.61765C18.8237 14.1328 -8.83736 60.3514 2.56723 105.85C13.9718 151.348 60.1235 178.897 105.651 167.382ZM118.403 64.063C117.292 52.6826 107.461 48.9018 95.0524 47.8569L95.0345 32.0588L85.4238 32.0908L85.4422 47.4717C82.9179 47.4801 80.3339 47.537 77.7639 47.601L77.747 32.1212L68.141 32.1502L68.1538 47.9443C66.0726 47.9938 64.029 48.0408 62.0351 48.0453L62.0339 47.9963L48.7765 48.0425L48.7902 58.3084C48.7902 58.3084 55.8858 58.1469 55.7711 58.2798C59.6653 58.2699 60.9367 60.5213 61.305 62.4715C61.3231 78.4805 61.3343 88.8307 61.3527 105.737C61.1818 106.957 60.4614 108.915 57.741 108.929C57.8661 109.035 50.7538 108.954 50.7538 108.954L48.8548 120.445L61.3612 120.398C63.6886 120.391 65.9822 120.423 68.2258 120.431L68.2499 136.402L77.8504 136.372L77.8355 120.57C80.4706 120.609 83.0236 120.627 85.5143 120.615L85.5271 136.344L95.1378 136.312L95.1262 120.369C111.288 119.383 122.595 115.273 123.98 100.09C125.102 87.8598 119.345 82.4309 110.169 80.2604C115.744 77.4036 119.224 72.3945 118.403 64.063ZM104.991 98.2649C105.008 110.202 84.5708 108.914 78.0551 108.939L78.035 87.7808C84.5516 87.7588 104.978 85.813 104.991 98.2649ZM100.488 68.4235C100.497 79.2784 83.4505 78.0742 78.0251 78.0983L78.0032 58.901C83.4311 58.8868 100.472 57.1004 100.488 68.4235Z" fill="#F7931A"/>
</svg>
