<svg width="638" height="881" viewBox="0 0 638 881" fill="none" xmlns="http://www.w3.org/2000/svg">
<path fill-rule="evenodd" clip-rule="evenodd" d="M518.286 0.0434427C520.089 -0.276891 519.652 1.17496 516.979 4.37743C460.272 72.295 428.87 108.331 408.176 129.232C390.986 146.595 368.176 159.359 330.742 172.563C328.734 173.273 316.482 184.906 303.513 198.418C268.195 235.211 269.614 233.442 270.638 239.446C271.732 245.868 276.32 249.556 304.066 266.329L324.815 278.871L339.261 299.974C347.206 311.582 355.962 324.915 358.722 329.605L363.739 338.128L390.729 344.106C416.697 349.859 418.644 349.999 442.097 347.872C455.504 346.654 476.678 344.113 489.15 342.223L511.828 338.788L543.039 319.907C577.745 298.914 583.699 295.105 613.154 275.058C632.741 261.727 637.882 259.682 637.591 265.333C637.518 266.742 617.116 297.739 592.253 334.216L547.046 400.539L537.22 404.398C531.814 406.522 509.582 414.845 487.814 422.894C448.421 437.459 448.165 437.527 433.804 437.307C425.869 437.184 419.068 437.517 418.691 438.046C418.316 438.576 423.972 453.797 431.259 471.869C438.546 489.942 446.131 508.749 448.113 513.664C451.575 522.246 451.539 523.485 447.183 545.231L442.649 567.864L447.795 583.965C477.391 676.575 487.479 705.508 490.554 706.602C494.63 708.049 500.287 715.623 512.514 736.001C517.806 744.822 522.647 752.844 523.27 753.83C523.891 754.814 522.881 757.953 521.028 760.805C519.175 763.656 513.541 772.601 508.511 780.681C501.607 791.768 495.007 799.154 481.612 810.778C471.848 819.25 462.766 826.368 461.428 826.596C460.089 826.824 451.484 825.375 442.304 823.376L425.614 819.742L421.218 825.946C414.284 835.729 409.614 836.801 387.875 833.597C364.257 830.116 351.082 826.219 346.844 821.457C345.071 819.464 337.61 808.86 330.266 797.893C317.137 778.292 316.712 777.873 305.227 773.316C298.803 770.765 282.135 763.964 268.189 758.204C241.252 747.077 226.429 743.654 193.671 741L173.29 739.347L156.478 752.073C130.744 771.551 102.783 794.71 77.874 817.18C50.4565 841.913 45.4706 846.062 0 880.045V876.395L49.0352 838.537L44.8711 833.652C41.4443 831.028 28.563 820.969 16.2451 811.298C11.1146 807.27 5.40668 802.778 0 798.517V794.567C6.75738 799.902 15.0798 806.403 25.2324 814.285C39.3647 825.256 51.7323 834.093 52.7168 833.926C53.7006 833.759 57.1178 821.033 60.3105 805.647C68.6483 765.464 69.4184 769.554 53.5781 769.875C46.154 770.026 25.9708 770.429 8.72559 770.773C5.73771 770.832 2.80858 770.897 0 770.963V768.015C26.6351 767.523 64.7957 766.143 65.3672 765.34C65.8472 764.663 63.9484 744.725 61.1475 721.036C58.3462 697.344 55.6056 678.037 55.0576 678.13C54.5094 678.224 40.4995 693.169 23.9248 711.342C15.8899 720.151 7.36308 729.412 0 737.346V732.673C5.48044 726.732 11.8918 719.773 19.373 711.64C35.9808 693.586 49.8646 678.083 50.2305 677.184C50.5933 676.288 39.4143 668.351 25.3887 659.546C11.5832 650.882 4.13079 646.25 0 644.078V639.372C12.2836 647.933 47.7601 670.503 51.5938 671.914C53.1936 672.502 54.7396 672.646 55.0312 672.236C55.3241 671.825 53.6235 644.61 51.2559 611.759C48.8885 578.91 46.9549 551.243 46.958 550.279C46.961 549.316 45.6983 548.475 44.1523 548.411C42.3933 548.338 35.5262 559.198 25.8281 577.377C12.4814 602.401 4.36577 617.848 0 626.609V618.29C4.02717 611.398 10.834 599.156 18.3652 585.172C39.5543 545.836 39.7125 545.442 41.583 527.693C42.6191 517.865 45.5067 493.144 48 472.759C50.4932 452.375 53.5624 426.048 54.8184 414.256C56.0761 402.464 56.702 392.533 56.2109 392.185C55.7195 391.838 49.7301 407.356 42.9023 426.668C36.0729 445.983 27.496 469.415 23.8428 478.738C20.1878 488.061 15.9225 503.444 14.3633 512.922C12.8041 522.401 7.89769 551.184 3.46191 576.887C2.1914 584.246 1.01829 591.244 0 597.491V576.877C4.41638 550.137 9.67642 519.833 11.582 510.829C12.7911 505.116 13.4972 500.242 13.1543 499.999C12.9371 499.844 7.7076 503.582 0 509.345V505.042L15.3076 493.375L31.8779 447.203C40.9929 421.809 50.248 395.91 52.4473 389.65C54.646 383.391 55.8885 378.364 55.2109 378.478C54.4335 378.611 35.8854 403.575 0 452.783V447.478C30.0021 406.554 51.066 378.266 55.9316 372.423C57.8697 370.094 50.7352 371.694 28.2373 378.635C23.2888 380.162 12.8904 383.37 0 387.347V384.167C7.41107 381.902 14.0941 379.861 19.334 378.264C36.5996 373.003 51.0359 368.262 51.4199 367.729C51.7983 367.197 34.8429 357.176 13.7441 345.46C8.93375 342.79 4.29755 340.223 0 337.851V334.334C5.85915 337.656 12.6228 341.436 19.7754 345.374C52.9231 363.62 59.4485 366.568 63.123 364.958C68.8476 362.448 69.1339 361.822 65.8506 359.002C64.3205 357.691 59.4686 346.144 55.0703 333.345L47.0732 310.076L13.0059 315.377C8.22704 316.121 3.87076 316.836 0 317.505V314.879L47.751 304.883L45.2324 296.892C43.8481 292.494 41.9248 284.253 40.957 278.577L39.1973 268.255L17.749 270.715C13.988 271.147 7.76911 271.839 0 272.698V269.287C11.3435 268.125 22.7622 266.757 27.1826 266.006L36.6777 264.392L32.6699 240.881C29.5416 222.531 29.19 217.281 31.0654 216.961C33.2885 216.583 42.6164 220.627 96.2295 245.213C115.558 254.078 116.144 254.209 129.867 252.679L143.835 251.123L154.533 214.522C160.418 194.393 166.439 176.401 167.916 174.543C173.123 167.989 213.656 137.521 243.389 117.814C270.018 100.163 275.13 97.4404 287.745 94.1714C313.284 87.5564 366.69 70.3902 386.423 62.4556C397.028 58.1911 414.96 50.0294 426.27 44.3198C437.579 38.6083 462.299 26.4192 481.204 17.23C500.107 8.04141 516.793 0.30799 518.286 0.0434427ZM397.563 820.237C391.836 819.661 379.744 819.967 370.694 820.918L354.24 822.65L361.144 824.933C371.807 828.458 401.339 833.125 406.72 832.135C409.368 831.647 413.327 829.814 415.517 828.064L419.495 824.88L413.737 823.083C410.569 822.094 403.292 820.814 397.563 820.237ZM167.637 735.876C165.749 734.89 163.808 734.215 163.324 734.377C162.84 734.538 141.722 742.508 116.398 752.088L70.3516 769.505L65.3291 797.559C62.5644 812.989 56.6087 829.946 56.0352 831.363C63.0352 827.363 74.5358 817.18 82.1162 809.31C105.024 788.406 132.88 765.505 155.045 749.347C169.049 739.14 170.635 737.442 167.637 735.876ZM464.327 798.186C467.23 777.933 468.914 778.474 441.894 790.982C431.458 795.813 420.36 800.707 417.229 801.859C414.097 803.009 411.661 804.447 411.812 805.056C412.319 807.088 459.734 823.23 461.257 821.889C462.082 821.162 462.556 819.395 462.312 817.961C462.067 816.529 462.974 807.629 464.327 798.186ZM345.627 739.328C349.226 748.222 371.045 784.84 376.835 791.7C382.497 798.409 414.696 820.116 419.448 820.426C425.403 820.816 419.201 813.517 408.408 807.434C396.735 800.854 387.431 790.316 377.923 772.904C375.366 768.222 369.524 760.005 364.942 754.645C360.361 749.285 353.664 742.471 350.062 739.502L343.514 734.105L345.627 739.328ZM493.448 756.515C492.243 756.304 488.92 758.915 486.062 762.317C483.205 765.718 478.328 771.133 475.228 774.351C470.358 779.408 469.302 782.614 467.459 797.949C466.285 807.711 465.188 816.768 465.021 818.075C464.853 819.383 465.044 820.396 465.445 820.329C465.847 820.26 473.374 813.743 482.172 805.845C493.272 795.882 500.917 787.052 507.151 777C512.091 769.033 516.052 762.032 515.952 761.444C515.851 760.856 511.241 759.593 505.703 758.635C500.166 757.679 494.653 756.725 493.448 756.515ZM342.612 787.298C342.267 787.357 341.75 792.001 341.461 797.621C340.707 812.282 347.06 821.523 356.492 819.484C360.098 818.705 359.742 817.543 350.878 801.243C346.676 793.514 342.956 787.24 342.612 787.298ZM428.372 815.862C426.221 814.978 424.585 814.991 424.737 815.887C425.014 817.509 430.926 819.379 431.815 818.125C432.071 817.762 430.522 816.744 428.372 815.862ZM338.436 735.901C330.094 737.324 338.008 772.886 352.201 797.76C357.522 807.088 362.83 815.605 363.995 816.686C365.289 817.889 370.501 817.903 377.418 816.724C383.635 815.664 392.4 815.43 396.895 816.203L405.065 817.607L389.082 805.723C374.594 794.95 372.115 792.19 362.622 776.262C356.861 766.595 349.422 753.498 346.091 747.158C342.758 740.818 339.313 735.751 338.436 735.901ZM396.488 792.313C399.274 796.065 403.544 800.362 405.979 801.862L410.404 804.587L406.321 799.701C404.075 797.013 399.805 792.715 396.829 790.152L391.423 785.491L396.488 792.313ZM324.399 783.942C325.715 786.178 329.195 791.187 332.129 795.071L337.465 802.133L338.19 796.066C338.589 792.73 338.284 788.929 337.509 787.625C336.735 786.318 332.93 784.041 329.054 782.564L322.006 779.877L324.399 783.942ZM427.096 744.143C425.755 743.329 385.531 771.49 385.798 773.056C386.129 774.988 408.055 797.576 411.57 799.606C414.347 801.207 448.683 785.875 446.228 784.132C445.491 783.608 441.041 774.494 436.343 763.875C431.645 753.258 427.483 744.38 427.096 744.143ZM191.615 654.703C160.931 654.246 158.978 654.301 159.203 655.622C159.322 656.32 169.506 666.494 181.834 678.233C194.162 689.974 208.927 704.771 214.642 711.121C223.088 720.504 228.709 724.536 244.668 732.66C255.467 738.157 276.244 749.689 290.843 758.287C318.08 774.329 334.945 783.021 337.869 782.524C338.846 782.357 337.663 774.408 334.983 763.134L330.439 744.027L314.619 731.711C305.918 724.937 278.88 704.903 254.534 687.188L210.272 654.979L191.615 654.703ZM445.06 770.254C442.946 769.807 442.836 770.778 444.56 774.731C445.77 777.508 447.558 780.358 448.531 781.067C450.635 782.597 464.8 777.973 464.442 775.874C464.306 775.074 460.496 773.611 455.979 772.623C451.461 771.634 446.546 770.569 445.06 770.254ZM484.505 758.998C491.319 750.831 486.875 752.138 477.59 761.031C468.636 769.607 466.031 776.305 474.388 769.267C477.255 766.852 481.807 762.23 484.505 758.998ZM384.901 701.913C377.406 703.183 365.689 704.64 358.868 705.15C348.922 705.895 346.552 706.578 346.905 708.598C348.217 716.085 365.909 750.611 373.273 760.055L381.818 771.009L402.965 756.136C414.59 747.96 424.3 741.045 424.547 740.766C424.785 740.493 419.03 731.119 411.757 719.936L398.53 699.602L384.901 701.913ZM448.947 713.339C448.85 713.356 444.912 719.095 440.198 726.092C431.875 738.445 431.698 739.032 434.119 746.205C440.023 763.696 442.081 766.096 453.29 768.564C459.027 769.827 464.049 770.4 464.448 769.837C464.847 769.274 462.9 763.423 460.125 756.837C457.348 750.252 453.738 737.764 452.101 729.086C450.466 720.422 449.049 713.344 448.947 713.339ZM231.645 729.28C230.157 728.486 232.377 731.716 236.579 736.458C244.207 745.067 258.517 752.48 286.24 762.181L296.136 765.646L285.661 758.783C279.9 755.01 265.998 747.154 254.769 741.325C243.539 735.495 233.133 730.074 231.645 729.28ZM73.2451 637.809C72.8418 637.878 72.4153 639.835 72.2979 642.159C71.7968 652.006 69.6637 763.331 69.9414 765.102C70.097 766.045 141.629 740.417 157.486 733.737L163.429 731.236L134.361 700.867C118.375 684.163 98.2478 663.114 89.6357 654.091C81.0272 645.072 73.6538 637.746 73.2451 637.809ZM456.253 716.079C453.418 712.637 452.808 718.726 454.888 729.694C456.973 740.694 466.692 765.405 468.562 764.459C469.276 764.098 473.475 760.832 477.891 757.206L485.918 750.609L471.999 734.452C464.343 725.566 457.257 717.298 456.253 716.079ZM488.904 739.446C490.741 746.074 492.688 752 493.228 752.613C493.768 753.224 498.712 754.401 504.214 755.225C509.716 756.049 515.299 756.927 516.62 757.174C517.942 757.42 518.792 756.263 518.509 754.603C518.225 752.941 510.695 746.138 501.776 739.487L485.562 727.392L488.904 739.446ZM452.984 697.743C454.424 706.188 466.026 723.92 479.287 737.944L487.623 746.758L484.97 737.906C481.377 725.926 477.535 718.74 469.009 708.058C465.054 703.103 459.542 697.069 456.763 694.649L451.707 690.251L452.984 697.743ZM223.363 726.636C222.634 726.342 220.194 728.82 217.943 732.146L213.85 738.191L222.623 740.408C240.063 744.817 240.238 744.724 232.027 735.455C227.991 730.901 224.093 726.933 223.363 726.636ZM58.0625 586.427C53.1889 559.706 49.6909 553.32 51.5322 574.514C52.2773 583.088 54.0335 606.656 55.4336 626.888C58.0528 664.708 65.6989 741.816 66.916 742.678C67.2925 742.943 67.5165 739.159 67.4121 734.268C67.3095 729.376 67.6524 704.731 68.1748 679.5C69.0122 638.965 68.6994 632.086 65.4854 620.405C63.4829 613.135 60.1427 597.844 58.0625 586.427ZM474.875 703.338C471.093 700.669 468.081 698.964 468.181 699.551C468.281 700.137 471.231 704.946 474.736 710.235C479.002 716.675 486.42 723.727 497.176 731.573C506.014 738.018 512.433 741.97 511.442 740.357C510.449 738.743 506.117 731.509 501.812 724.282C495.276 713.309 492.976 710.9 487.868 709.667C484.503 708.855 478.657 706.006 474.875 703.338ZM313.846 727.375C327.42 737.987 330.839 740.062 331.964 738.373C332.167 738.066 324.803 732.83 315.599 726.739L298.865 715.662L313.846 727.375ZM159.404 662.204C158.08 662.429 185.306 703.204 201.112 724.669L210.941 738.018L215.078 730.908C217.352 726.997 219.055 722.876 218.863 721.75C218.332 718.638 202.34 701.748 180.138 680.847C169.165 670.521 159.835 662.13 159.404 662.204ZM105.182 559.491C103.773 558.901 102.008 558.51 101.259 558.621C96.7723 559.295 115.481 617.793 127.652 641.149C139.097 663.108 145.785 677.625 158.881 708.924L168.733 732.475L185.357 734.906C194.499 736.241 203.041 737.542 204.336 737.793C205.631 738.041 198.908 727.212 189.396 713.727C163.699 677.295 153.607 659.832 135.37 620.246C108.498 561.912 107.851 560.608 105.182 559.491ZM343.953 712.635C342.921 712.823 339.082 728.271 339.483 730.625C339.609 731.359 340.684 731.796 341.872 731.593C343.062 731.39 346.824 733.053 350.234 735.286C354.347 737.981 355.888 738.371 354.812 736.448C353.918 734.854 351.334 728.804 349.067 723.004C346.802 717.205 344.499 712.539 343.953 712.635ZM448.642 691.476C447.465 689.274 428.457 692.222 410.756 697.356L401.614 700.006L414.23 718.328C421.17 728.404 427.182 736.965 427.591 737.353C428 737.743 433.115 731.269 438.959 722.972C447.144 711.351 449.606 706.237 449.671 700.723C449.72 696.786 449.256 692.624 448.642 691.476ZM222.798 657.492C219.717 657.17 303.229 715.93 322.634 727.738L334.491 734.955L337.979 721.676C339.896 714.375 340.93 707.236 340.276 705.811C339.621 704.387 331.858 695.983 323.028 687.135L306.973 671.049L266.306 664.419C243.941 660.774 224.364 657.657 222.798 657.492ZM75.04 577.286C74.1336 576.565 73.2483 580.484 73.0732 585.996C72.8982 591.508 72.5101 603.881 72.2109 613.491L71.668 630.961L98.7881 659.208C113.704 674.743 131.578 693.405 138.509 700.678C145.439 707.951 151.307 713.625 151.548 713.287C152.305 712.218 106.647 628.628 91.3516 603.085C83.2884 589.618 75.9466 578.008 75.04 577.286ZM75.7734 549.018C66.1041 545.943 58.342 544.312 58.5264 545.393C58.7111 546.475 61.0306 550.268 63.6816 553.823C75.0222 569.037 105.42 620.222 129.161 664.085C143.232 690.078 154.872 710.527 155.032 709.527C155.404 707.158 139.977 672.684 125.529 643.6C117.533 627.499 111.614 612.293 105.575 592.341C100.853 576.738 96.1741 561.867 95.1729 559.292C93.6987 555.491 90.0429 553.555 75.7734 549.018ZM331.084 678.625C322.102 675.474 314.835 673.371 314.933 673.949C315.031 674.527 321.772 681.764 329.91 690.028L344.707 705.055L390.185 697.302L368.8 690.83C357.038 687.268 340.067 681.777 331.084 678.625ZM418.187 485.271C416.541 478.465 416.474 478.422 413.869 482.543C411.377 486.486 411.78 489.3 420.851 531.354C429.333 570.677 432.663 582.352 448.874 629.605C458.992 659.098 468.297 686.283 469.55 690.018C470.802 693.75 473.811 698.211 476.234 699.928C484.094 705.498 485.106 709.393 452.733 609.407C444.254 583.216 433.388 546.126 428.588 526.985C423.788 507.844 419.106 489.073 418.187 485.271ZM395.212 554.022C391.178 550.645 388.634 549.268 389.558 550.964C390.479 552.659 402.074 577.9 415.322 607.056C454.178 692.564 450.322 685.276 459.731 690.995L468.057 696.051L465.451 688.159C450.438 642.665 428.858 582.944 426.504 580.379C424.879 578.609 418.823 573.336 413.048 568.662C407.271 563.989 399.246 557.401 395.212 554.022ZM409.859 660.379C369.482 632.188 359.749 625.958 361.726 629.574C362.494 630.979 371.248 646.446 381.18 663.943L399.239 695.759L422.475 691.798C435.254 689.62 445.605 687.218 445.478 686.46C445.348 685.703 429.32 673.967 409.859 660.379ZM355.469 626.76C354.769 626.283 344.356 635.336 332.327 646.879C317.271 661.331 311.208 668.275 312.864 669.17C317.953 671.923 393.278 695.265 393.961 694.302C394.355 693.74 391.31 687.681 387.191 680.834C383.071 673.987 374.533 659.214 368.22 648.007C361.906 636.801 356.168 627.24 355.469 626.76ZM365.422 549.315C365.077 549.071 364.699 550.805 364.585 553.17C364.469 555.537 362.731 570.514 360.721 586.452C358.711 602.39 357.271 616.626 357.52 618.089C357.769 619.551 367.187 626.907 378.451 634.435C389.715 641.963 409.201 655.636 421.754 664.82C434.306 674 444.495 680.97 444.401 680.311C444.165 678.708 432.625 659.333 396.272 599.5C379.652 572.144 365.769 549.561 365.422 549.315ZM245.177 597.726C244.881 597.485 237.337 609.513 228.409 624.461C219.479 639.411 212.601 651.947 213.124 652.318C214.946 653.608 299.404 666.193 300.057 665.272C300.416 664.76 296.616 659.768 291.608 654.176C286.602 648.585 274.226 633.696 264.108 621.091C253.989 608.486 245.47 597.972 245.177 597.726ZM282.041 566.912C280.464 567.261 250.729 591.887 249.086 594.205C247.109 596.998 303.11 665.624 306.844 664.98C308.348 664.72 348.586 628.205 350.78 625.106C351.12 624.612 338.86 613.88 323.527 601.252C308.192 588.621 292.84 575.673 289.41 572.476C285.981 569.279 282.665 566.775 282.041 566.912ZM165.019 575.108C113.762 560.937 110.725 560.23 112.267 562.832C113.024 564.106 121.221 581.794 130.486 602.142C139.752 622.489 148.813 641.809 150.62 645.074L153.906 651.01L174.376 651.417C212.698 652.178 206.315 655.466 223.888 625.919C232.319 611.743 239.448 598.989 239.73 597.579C240.083 595.825 233.586 593.313 219.233 589.65C207.678 586.699 183.28 580.155 165.019 575.108ZM384.122 546.196C382.54 543.138 380.722 540.861 380.08 541.134C379.439 541.407 376.26 542.427 373.019 543.398C368.385 544.787 367.471 545.776 368.751 548.014C378.916 565.778 428.265 645.878 428.689 645.297C429.204 644.573 390.587 558.705 384.122 546.196ZM361.959 550.905C362.579 547.827 361.158 547.811 345.767 550.707C336.487 552.452 326.091 554.637 322.666 555.56C319.241 556.485 309.751 558.886 301.578 560.897C289.707 563.818 287.006 565.039 288.149 566.969C288.938 568.299 303.928 581.2 321.462 595.636L353.341 621.884L354.263 612.793C355.608 599.548 361.165 554.85 361.959 550.905ZM57.1357 565.008C59.5257 575.763 62.7318 591.896 64.2598 600.859C65.7877 609.822 67.4281 616.606 67.9033 615.933C69.1215 614.213 71.0809 575.26 70.1816 570.627C69.7751 568.527 65.6941 562.003 61.1143 556.13L52.7881 545.454L57.1357 565.008ZM181.831 518.894C180.662 519.142 173.61 522.882 166.158 527.207C158.707 531.531 144.156 539.518 133.824 544.958C123.492 550.397 114.535 555.483 113.921 556.257C113.057 557.351 195.962 580.986 235.399 590.891L241.956 592.54L233.648 582.203C221.402 566.966 215.322 559.208 198.828 537.772C190.648 527.141 182.999 518.646 181.831 518.894ZM213.014 507.304C201.453 511.534 190.667 515.478 189.045 516.069C186.678 516.932 190.62 522.829 209.08 546.031C221.721 561.918 234.727 578.754 237.983 583.442C241.237 588.131 244.707 591.829 245.695 591.662C247.504 591.353 274.696 568.572 279.688 563.183C282.716 559.914 284.088 507.368 281.192 505.546C280.278 504.971 269.295 503.402 256.784 502.059L234.035 499.615L213.014 507.304ZM408.723 491.306C407.008 491.628 384.511 536.246 384.902 538.546C385.365 541.259 399.921 554.552 414.597 565.66L426.637 574.774L421.629 551.434C418.875 538.597 415.099 519.768 413.236 509.595C411.375 499.422 409.343 491.191 408.723 491.306ZM324.202 531.821C322.694 532.108 289.879 558.847 290.499 559.285C290.817 559.51 306.118 556.14 324.502 551.796C342.887 547.452 357.213 543.414 356.336 542.819C355.456 542.224 348.071 539.47 339.922 536.696C331.772 533.92 324.698 531.727 324.202 531.821ZM285.316 464.314C281.897 464.378 281.807 465.825 284 485.36C285.295 496.897 286.2 517.694 286.008 531.579C285.817 545.459 285.745 557.315 285.849 557.926C285.953 558.536 288.407 556.969 291.304 554.445C294.201 551.922 299.521 547.516 303.127 544.651C319.672 531.511 320.118 530.92 317.342 525.9C315.931 523.348 308.975 508.433 301.882 492.753C291.02 468.744 288.407 464.256 285.316 464.314ZM435.129 504.013C425.598 489.382 422.523 485.719 423.163 489.758C424.857 500.437 438.023 552.426 439.831 555.578C441.192 557.951 442.494 554.21 444.815 541.247L447.957 523.705L435.129 504.013ZM127.022 481.642C114.559 521.752 104.882 554.935 105.513 555.382C106.721 556.239 146.259 535.62 168.668 522.446C178.927 516.415 181.527 514.077 180.433 511.874C179.66 510.314 173.817 491.088 167.448 469.145C161.078 447.201 154.475 424.627 152.773 418.98L149.68 408.712L127.022 481.642ZM148.101 401.259C147.523 400.591 144.351 400.502 141.049 401.065C135.511 402.009 134.128 403.874 123.167 425.171C109.304 452.104 71.7383 518.212 62.9639 531.118C59.6354 536.014 57.3253 540.29 57.8281 540.62C58.3345 540.949 66.8477 543.677 76.748 546.684C86.6515 549.691 95.4141 552.9 96.2197 553.816C97.0268 554.73 98.4258 555.353 99.3301 555.199C100.234 555.045 108.737 529.519 118.225 498.473C127.711 467.43 138.55 433.13 142.311 422.252C146.07 411.378 148.675 401.931 148.101 401.259ZM59.127 408.56C58.6971 408.262 56.6581 423.937 54.5928 443.399C52.5268 462.862 49.0964 492.903 46.9697 510.155C44.8432 527.405 43.1798 542.133 43.2725 542.888C43.5783 545.326 50.2756 543.169 50.8184 540.458C51.5472 536.817 58.4034 441.711 59.2314 423.752C59.6025 415.7 59.5548 408.865 59.127 408.56ZM354.884 497.326C354.549 497.09 353.406 499.965 352.343 503.716C351.281 507.467 349.79 510.654 349.029 510.798C348.271 510.944 346.674 511.941 345.485 513.014C343.795 514.538 345.742 517.867 354.376 528.22C365.196 541.189 365.58 541.448 372.422 540.282C376.267 539.626 379.274 538.283 379.106 537.297C378.938 536.31 373.556 527.011 367.147 516.631C360.736 506.251 355.218 497.563 354.884 497.326ZM313.882 495.383C299.876 477.208 297.731 474.795 298.24 477.781C298.614 479.974 321.053 526.936 321.914 527.326C325.474 528.939 359.422 540.635 360.176 540.508C361.36 540.306 350.055 526.422 344.382 521.112C342.192 519.06 337.501 516.415 333.959 515.234C329.041 513.591 324.305 508.909 313.882 495.383ZM95.751 377.874C81.2306 369.527 73.3442 366.082 70.0508 366.643C64.5711 367.577 64.677 367.185 64.2529 388.102C64.0756 396.833 61.8327 433.504 59.2715 469.592C56.7088 505.683 55.0836 535.545 55.6611 535.953C57.3639 537.157 96.4559 469.571 120.243 424.298L133.047 399.928L124.872 394.921C120.377 392.167 107.272 384.494 95.751 377.874ZM352.273 441.359C351.868 441.428 352.245 443.248 353.113 445.404C353.982 447.561 360.369 467.198 367.307 489.044C374.245 510.892 380.628 529.665 381.49 530.761C382.951 532.617 405.266 492.563 406.665 485.575C407.043 483.682 397.921 475.565 380.128 461.961C365.216 450.562 352.682 441.291 352.273 441.359ZM346.434 439.394C345.492 439.352 340.286 441.631 334.863 444.459C329.44 447.288 318.057 451.746 309.567 454.368C301.078 456.989 293.887 459.449 293.588 459.835C293.297 460.222 303.691 463.78 316.693 467.742C329.698 471.705 342.291 476.439 344.679 478.261C347.064 480.082 354.489 490.554 361.175 501.534C367.862 512.511 373.54 521.203 373.79 520.848C374.041 520.488 368.373 502.036 361.194 479.837C354.017 457.638 347.374 439.441 346.434 439.394ZM153.303 404.559C151.832 404.81 151.951 405.244 170.718 467.658L184.026 511.915L193.888 509.731C199.311 508.531 210.427 504.961 218.588 501.798L233.427 496.048L236.456 468.547C238.124 453.421 239.435 439 239.368 436.5C239.26 432.308 235.988 430.893 196.939 418.145C173.673 410.55 154.039 404.436 153.303 404.559ZM344.607 485.004C336.259 478.349 324.153 488.17 326.262 499.883C327.676 507.743 331.719 511.542 338.883 511.747C343.253 511.872 345.218 510.835 347.662 507.114C349.394 504.478 350.685 501.035 350.53 499.462C349.862 492.679 347.742 487.505 344.607 485.004ZM424.118 462.61C407.181 420.581 403.81 413.1 407.379 425.452C408.506 429.354 411.525 441.401 414.088 452.223C417.319 465.863 420.581 475.014 424.715 482.049C432.124 494.662 443.952 511.711 442.031 507.013C441.249 505.099 433.187 485.118 424.118 462.61ZM246.839 438.624C243.697 435.783 243.235 437.623 240.063 465.536L236.66 495.498L241.728 496.77C244.514 497.469 254.673 498.82 264.302 499.771L281.807 501.497L282.16 496.931C282.354 494.421 281.133 486.033 279.449 478.293L276.389 464.222L263.3 452.948C256.101 446.746 248.694 440.3 246.839 438.624ZM293.469 464.508C292.616 464.601 294.091 467.027 296.743 469.902C299.398 472.777 305.993 480.615 311.401 487.321C317.169 494.474 321.394 498.371 321.619 496.746C322.628 489.477 327.534 482.87 333.586 480.632L339.97 478.269L317.494 471.305C305.133 467.474 294.32 464.415 293.469 464.508ZM395.021 406.157C384.776 392.254 361.156 367.778 363.403 373.395C364.552 376.27 373.641 396.914 383.6 419.27C413.409 486.188 410.487 480.497 413.127 476.772C415.733 473.095 414.363 464.958 405.783 433.167C402.02 419.223 398.926 411.459 395.021 406.157ZM355.73 366.39C353.43 361.748 353.844 358.882 349.729 407.911C348.657 420.678 348.504 432.429 349.389 434.024C350.276 435.619 363.337 446.082 378.417 457.275L405.836 477.625L401.862 468.167C399.676 462.963 388.874 438.889 377.858 414.666C366.843 390.443 356.885 368.72 355.73 366.39ZM248.879 406.322C247.38 405.137 242.806 425.521 243.567 429.988C243.775 431.207 252.005 439.139 261.856 447.615C276.525 460.231 280.403 462.704 283.26 461.266C285.181 460.3 287.016 459.178 287.342 458.771C287.665 458.362 279.491 446.67 269.178 432.787C258.863 418.903 249.729 406.994 248.879 406.322ZM253.249 404.27C251.269 404.608 253.172 407.414 271.349 430.961L289.756 454.808L302.76 452.219C309.912 450.793 322.043 446.733 329.714 443.192C350.773 433.472 349.656 428.199 325.307 422.382C317.032 420.406 297.663 415.484 282.261 411.444C266.861 407.404 253.807 404.177 253.249 404.27ZM400.363 395.94C400.138 395.984 402.267 400.854 405.1 406.764C407.932 412.68 411.45 421.179 412.916 425.654L415.583 433.788L429.507 433.796C437.164 433.799 443.816 433.259 444.287 432.592C445.274 431.193 436.572 399.4 434.87 398.196C434.248 397.756 426.325 397.053 417.261 396.633C408.197 396.213 400.593 395.901 400.363 395.94ZM534.136 381.86C526.732 370.689 529.784 370.625 488.299 382.844C473.991 387.057 457.098 391.973 450.76 393.764L439.235 397.022L441.938 407.13C443.423 412.689 445.8 420.878 447.217 425.327L449.796 433.414L475.181 424.025C489.142 418.861 510.288 411.107 522.171 406.796C546.775 397.873 545.923 399.648 534.136 381.86ZM209.155 386.084C178.633 392.28 154.527 397.965 153.681 399.17C153.159 399.913 170.273 406.126 191.712 412.974C213.152 419.825 232.684 426.289 235.117 427.339C239.278 429.137 239.628 428.867 241.026 422.792C241.845 419.242 243.012 413.021 243.622 408.969L244.731 401.602L220.006 383.883L209.155 386.084ZM298.394 335.056C287.221 330.25 285.892 330.037 287.588 333.327C289.35 336.743 297.008 349.108 332.104 405.195C338.597 415.572 344.299 423.393 344.777 422.575C345.675 421.036 350.433 370.039 350.479 361.459C350.503 357.069 348.688 355.88 330.819 348.58C319.992 344.158 305.401 338.071 298.394 335.056ZM278.395 334.202C277.018 337.351 270.117 353.54 263.059 370.18L250.226 400.435L293.89 411.048C317.902 416.886 337.7 421.4 337.884 421.078C338.065 420.756 328.556 405.39 316.752 386.931C304.948 368.472 292.052 347.768 288.094 340.922L280.896 328.478L278.395 334.202ZM298.08 266.231C279.034 254.296 272.623 251.091 273.072 253.726C273.404 255.674 274.47 257.589 275.439 257.982C277.118 258.664 308.155 297.219 334.259 331.046C344.208 343.943 394.793 401.002 398.646 403.677C402.105 406.08 364.011 343.48 337.799 303.693L323.691 282.278L298.08 266.231ZM44.9082 278.807C48.8245 302.828 51.6731 314.605 57.877 332.427C62.2497 344.988 66.9055 356.283 68.2227 357.525C69.5435 358.769 79.7789 364.384 90.9717 370.004C102.166 375.626 117.178 384.289 124.334 389.255C134.666 396.428 138.848 398.232 144.662 398.026C148.689 397.883 152.33 396.909 152.754 395.862C153.178 394.814 144.224 389.55 132.856 384.163C115.866 376.111 79.0837 356.985 74.9443 354.05C74.3622 353.638 66.2357 329.614 56.8877 300.663L39.8896 248.026L44.9082 278.807ZM276.577 328.873C276.471 328.252 275.793 327.949 275.066 328.198C267.956 330.639 199.792 358.17 197.444 359.549C194.863 361.065 198.568 364.444 219.643 379.806C233.555 389.946 245.689 398.087 246.605 397.897C248.19 397.562 276.982 331.252 276.577 328.873ZM413.515 361.916C395.178 357.287 373.533 354.022 374.776 356.071C391.869 384.232 395.759 390.436 396.94 391.404C398.61 392.772 431.618 394.326 432.524 393.08C432.867 392.605 430.504 385.85 427.273 378.063C421.531 364.226 421.219 363.861 413.515 361.916ZM628.458 275.243C626.567 275.723 530.344 367.732 530.444 368.963C530.618 371.109 545.264 393.555 546.373 393.375C546.934 393.283 552.998 384.926 559.852 374.8C566.705 364.677 585.141 338.084 600.822 315.707C616.5 293.333 628.934 275.129 628.458 275.243ZM168.21 348.197C167.712 348.278 162.303 353.394 156.189 359.561C150.076 365.73 141.524 372.763 137.186 375.193L129.299 379.606L157.341 392.616L168.65 380.031C174.872 373.11 181.749 365.776 183.934 363.734L187.905 360.022L178.51 354.034C173.344 350.741 168.71 348.115 168.21 348.197ZM506.197 345.2C505.17 344.785 486.861 346.242 465.509 348.438C413.462 353.79 418.226 352.613 421.628 359.282C423.19 362.341 427.438 371.039 431.069 378.609L437.67 392.372L451.479 389.486C467.057 386.229 523.551 370.105 524.608 368.615C525.45 367.427 508.802 346.256 506.197 345.2ZM190.272 362.989C188.201 363.349 163.378 389.27 162.989 391.479C162.727 392.986 189.012 387.977 205.393 383.4L214.728 380.791L203.403 371.734C197.176 366.752 191.268 362.818 190.272 362.989ZM149.554 340.125C144.281 337.918 138.994 336.378 137.804 336.7C136.616 337.023 131.82 343.147 127.146 350.308C119.634 361.826 118.889 363.948 120.701 368.675L122.751 374.021L141.251 360.862C151.424 353.627 159.612 346.904 159.447 345.922C159.28 344.942 154.828 342.332 149.554 340.125ZM159.554 352.006C159.399 351.097 159.683 350.898 142.931 363.664C128.531 374.638 127.987 375.579 138.98 370.513C142.57 368.861 159.786 353.372 159.554 352.006ZM108.915 362.596C100.244 358.99 85.1387 355.019 88.8086 357.311C94.6119 360.937 113.889 371.705 116.062 372.534C117.72 373.167 118.339 372.249 117.919 369.783C117.514 367.405 114.294 364.836 108.915 362.596ZM632.37 265.333C631.874 265.426 617.974 274.772 601.481 286.102C584.989 297.432 557.78 314.678 541.018 324.427C524.265 334.171 510.397 342.356 510.189 342.623C509.448 343.611 526.866 365.07 528.223 364.838C529.01 364.703 543.278 351.593 559.934 335.705C576.591 319.815 598.119 299.652 607.774 290.901C617.432 282.151 627.118 272.778 629.302 270.076C631.485 267.374 632.866 265.239 632.37 265.333ZM39.1816 232.328C38.5527 231.923 39.0307 234.354 40.248 237.729C41.4641 241.106 48.9291 264.538 56.8369 289.801C77.7841 356.728 74.7083 350.582 88.6162 353.303C93.6316 354.285 101.197 356.515 105.429 358.259C109.662 360.002 113.44 360.984 113.825 360.44C114.211 359.896 112.596 352.783 110.237 344.633C106.645 332.217 103.676 326.585 91.9209 309.875C84.2039 298.907 69.4402 277.138 59.1104 261.499C48.7804 245.859 39.8126 232.732 39.1816 232.328ZM368.721 342.46C366.886 341.969 366.949 342.964 368.993 346.667C371.176 350.616 373.693 351.78 382.594 352.946C388.603 353.732 398.943 355.491 405.571 356.853C414.924 358.774 417.529 358.764 417.195 356.805C416.62 353.429 415.009 352.855 391.436 347.617C380.265 345.135 370.043 342.814 368.721 342.46ZM114.857 345.743C116.667 352.218 118.376 357.703 118.656 357.936C118.938 358.166 122.267 353.163 126.056 346.815C129.846 340.467 132.595 335.029 132.169 334.726C131.742 334.427 126.932 334.136 121.48 334.079L111.567 333.974L114.857 345.743ZM193.744 237.616C192.793 237.778 187.379 286.202 186.105 305.916C185.672 312.643 186.302 326.983 187.506 337.78L189.693 357.413L194.219 356.641C199.359 355.764 275.63 325.07 276.815 323.4C277.24 322.803 272.011 305.373 265.197 284.669L252.811 247.028L223.713 242.248C207.71 239.618 194.223 237.534 193.744 237.616ZM159.184 308.644C157.308 308.964 157.856 310.968 165.035 329.979C170.916 345.56 172.636 348.09 179.639 351.472L185.714 354.407L173.353 331.371C166.554 318.704 160.179 308.477 159.184 308.644ZM275.532 262.754C274.103 263.006 281.899 324.369 283.458 325.131C292.122 329.349 345.547 351.358 345.428 350.66C345.376 350.371 338.858 342.095 330.938 332.264C323.017 322.431 312.713 309.177 308.037 302.809C303.362 296.441 294.242 284.807 287.767 276.954C281.293 269.102 275.787 262.711 275.532 262.754ZM165.003 336.963C160.165 324.284 155.362 314.158 155.721 317.395C156.364 323.222 164.181 343.148 165.719 342.889C166.516 342.753 166.194 340.086 165.003 336.963ZM169.51 180.073C167.862 178.822 145.428 256.13 145.269 263.601C145.202 266.799 147.825 275.23 151.319 283.041C157.67 297.239 180.672 339.94 182.771 341.428C183.418 341.887 183.523 339.776 183.005 336.736C181.28 326.615 182.586 301.233 186.474 269.311C188.59 251.943 189.819 234.79 189.206 231.195C188.593 227.6 184.199 214.845 179.441 202.852C174.684 190.859 170.214 180.611 169.51 180.073ZM52.0518 233.17C50.4959 232.319 66.3146 244.053 87.2041 259.246C108.095 274.437 126.002 288.267 127.004 289.977C128.003 291.688 130.916 301.948 133.475 312.777L138.128 332.468L148.108 336.54C153.596 338.778 158.399 340.169 158.785 339.629C159.167 339.088 157.513 334.522 155.107 329.483C150.039 318.864 141.508 296.38 137.534 283.168C135.076 274.993 133.933 273.636 126.854 270.512C122.494 268.587 104.517 259.745 86.9033 250.865C69.2913 241.983 53.6093 234.02 52.0518 233.17ZM84.627 261.019C62.4211 245.283 44.3372 232.899 44.4385 233.5C44.5414 234.105 48.4102 240.141 53.0381 246.917C57.6642 253.694 71.7985 274.642 84.4453 293.469C97.0922 312.296 108.348 328.502 109.456 329.48C110.565 330.46 115.307 331.185 119.996 331.091C124.684 330.997 129.845 331.185 131.466 331.51C134.044 332.025 133.825 329.453 129.707 310.866L125.001 289.634L84.627 261.019ZM147.77 298.493C142.499 287.302 143.504 294.242 148.953 306.666C151.266 311.934 152.84 314.16 152.48 311.648C152.122 309.15 150.001 303.23 147.77 298.493ZM142.442 257.993C143.019 253.899 142.592 253.78 133.125 255.394C127.669 256.324 121.633 256.863 119.713 256.593C117.168 256.236 117.625 256.938 121.396 259.18C137.628 268.828 139.284 270.636 146.389 286.496C150.24 295.094 154.526 302.785 155.911 303.585C157.409 304.451 155.631 299.305 151.516 290.87C144.373 276.229 141.392 265.432 142.442 257.993ZM268.113 240.291C268.317 234.927 266.65 235.27 260.852 241.788L256.208 247.005L263.686 270.607C267.796 283.586 271.974 295.261 272.966 296.549C273.958 297.839 273.235 286.656 271.36 271.699C269.485 256.744 268.025 242.611 268.113 240.291ZM116.667 260.061C115.179 260.315 116.389 261.636 119.805 263.486C123.056 265.245 123.108 265.171 120.371 262.686C118.709 261.177 117.041 259.997 116.667 260.061ZM101.071 251.128C84.179 242.686 67.0158 234.929 67.1631 235.803C67.4584 237.536 106.172 256.816 107.006 255.645C107.451 255.016 104.78 252.984 101.071 251.128ZM258.651 152.759C254.625 152.511 253.6 153.68 214.563 203.062C202.527 218.291 193.092 231.531 193.603 232.487C194.111 233.44 207.823 236.437 224.071 239.142C250.371 243.522 253.971 243.72 256.868 240.932C264.371 233.713 320.345 166.569 320.178 164.988C320.077 164.039 307.039 160.951 291.204 158.126C275.369 155.302 260.72 152.887 258.651 152.759ZM247.134 156.157C234.294 160.127 176.986 179.283 175.665 180.048C174.039 180.99 181.162 201.556 190.297 222.306C192.208 226.648 193.103 225.764 214.646 198.286C226.944 182.594 239.487 166.635 242.514 162.82C245.541 159.004 247.62 156.007 247.134 156.157ZM435.793 94.727C435.589 93.5334 435.39 93.7216 414.979 114.555C394.04 135.926 392.883 136.868 371.668 149.788C359.854 156.983 356.255 158.29 342.668 160.334L327.154 162.668L312.57 180.289C291.201 206.104 290.081 208.35 307.783 189.876C327.904 168.878 325.113 170.893 341.033 165.845C356.943 160.801 389.436 143.108 398.8 134.391C406.85 126.898 435.955 95.6893 435.793 94.727ZM275.096 101.842C274.79 100.05 271.967 101.676 256.813 112.372C248.329 118.363 234.449 127.831 225.972 133.417C212.304 142.423 171.321 174.413 174.014 173.974C178.699 173.209 275.482 104.145 275.096 101.842ZM272.076 108.943C271.856 109.018 255.308 121.138 235.303 135.88C215.297 150.621 195.887 164.495 192.171 166.71C188.455 168.926 184.882 171.389 184.229 172.183C182.908 173.797 245.629 153.708 250.925 150.821C252.774 149.813 258.379 139.949 263.381 128.9C268.379 117.858 272.29 108.883 272.076 108.943ZM306.778 134.857C294.577 137.279 262.279 148.255 263.989 149.398C265.387 150.33 324.933 161.279 326.845 160.956C327.14 160.905 324.161 154.732 320.229 147.236L313.078 133.606L306.778 134.857ZM502.471 16.437C502.222 14.976 500.887 15.8888 475.544 34.8569C378.682 107.351 384.792 103.229 353.961 116.878C338.257 123.83 323.414 130.098 320.976 130.806C315.899 132.28 315.768 131.672 324.595 147.381L331.275 159.27L344.451 157.02C355.524 155.129 360.159 153.205 373.467 144.981C390.617 134.386 392.982 132.306 426.221 98.6196C450.049 74.4712 502.691 17.7319 502.471 16.437ZM279.113 105.955C277.794 106.042 271.043 118.834 262.735 136.99C257.762 147.861 257.309 147.755 277.978 140.585C286.192 137.735 296.713 134.212 301.36 132.759L309.808 130.116L295.121 117.992C287.045 111.327 279.843 105.909 279.113 105.955ZM498.127 12.7895C496.641 13.0819 490.8 15.6598 485.146 18.52C453.356 34.5995 397.787 61.6406 388.052 65.7661C375.805 70.9562 321.856 88.153 298.913 94.1802C276.563 100.05 276.651 99.2284 296.67 115.485L314.289 129.792L323.127 127.046C336.021 123.039 378.518 102.321 390.138 94.3794C395.638 90.6185 422.794 70.6038 450.483 49.9009C478.173 29.1979 499.613 12.499 498.127 12.7895Z" fill="white"/>
</svg>
